<svg width="34" height="36" viewBox="0 0 34 36" fill="none" xmlns="http://www.w3.org/2000/svg">
<path d="M8.43978 34.889C8.6484 34.8329 8.89061 34.8 9.19658 34.8C10.0014 34.8 10.3679 35.0256 10.8313 35.3109C11.3561 35.6341 11.9508 36 13.0951 36C14.2397 36 14.8345 35.6341 15.3592 35.3109L15.3598 35.3105C15.8236 35.0254 16.1901 34.8 16.9948 34.8C17.7988 34.8 18.1651 35.0255 18.6284 35.3107L18.6287 35.3109L18.6297 35.3116C19.1542 35.6343 19.7486 36 20.8922 36C22.0371 36 22.6321 35.6341 23.1568 35.3109L8.43978 34.889ZM8.43978 34.889C8.43835 34.8895 8.43747 34.8906 8.43604 34.8911L8.43978 34.889ZM31.9708 16.9843C32.0218 16.8261 32.0051 16.6541 31.9242 16.5088C31.8436 16.3635 31.7065 16.2583 31.5454 16.2179M31.9708 16.9843L31.4004 16.8003L31.3998 16.8001L31.3997 16.8002M31.9708 16.9843L26.4917 33.9684L31.9708 16.9843ZM31.3997 16.8002L31.3997 16.8001M31.3997 16.8002L31.3997 16.8003M31.3997 16.8002L31.3994 16.7998M31.3997 16.8001L31.3996 16.7999M31.3997 16.8001L30.7772 16.6445L17.7453 13.3864L16.9998 13.2L16.2543 13.3864L3.22244 16.6445L2.59995 16.8001M31.3997 16.8001L31.2027 17.4108L26.6338 31.5738L31.3997 16.8003M31.3996 16.7999L31.3999 16.8L31.4 16.7994L31.5454 16.2179M31.3996 16.7999L31.3995 16.7997L31.3994 16.7998M31.3996 16.7999L31.3994 16.7998M31.5454 16.2179L31.3994 16.7998M31.5454 16.2179L28.3998 15.4315V9C28.3998 8.66865 28.1312 8.4 27.7998 8.4L31.3994 16.7998M31.3994 16.7998L28.2543 16.0136L27.7998 15.8999L27.0543 15.7136L16.9999 13.2L16.9997 13.1999L16.999 13.1997C16.9993 13.1998 16.9995 13.1998 16.9997 13.1999C16.9998 13.1999 16.9998 13.1999 16.9999 13.1999C17.0001 13.1998 17.0003 13.1998 17.0006 13.1997L16.9999 13.1999L16.9997 13.2L6.94533 15.7136L6.1998 15.8999L5.74533 16.0136L2.60021 16.7998L2.60005 16.7999L2.59995 16.8001M2.59995 16.8001L2.59987 16.8002L2.59989 16.8003M2.59995 16.8001L2.79694 17.4108L8.07775 33.7807L2.59989 16.8003M2.59989 16.8003L2.59982 16.8003L2.59968 16.8005L2.59989 16.8003ZM31.3997 16.8003L31.3999 16.8005L31.3998 16.8003L31.3997 16.8003ZM6.93281 34.2891L6.93246 34.2893C6.46915 34.5745 6.10293 34.8 5.29834 34.8C4.49355 34.8 4.12705 34.5744 3.66357 34.2891C3.13887 33.9659 2.54414 33.6 1.3998 33.6C1.06845 33.6 0.799805 33.8687 0.799805 34.2C0.799805 34.5314 1.06845 34.8 1.3998 34.8C2.20439 34.8 2.57062 35.0255 3.03393 35.3107L6.93281 34.2891ZM3.34871 34.7999L3.33099 34.789C3.11035 34.6531 2.85901 34.4983 2.55231 34.3854C2.37555 34.3203 2.18739 34.2713 1.97826 34.24C2.58682 34.3306 2.96224 34.5618 3.34496 34.7975L3.34894 34.8L3.34901 34.8L3.36642 34.8107C3.58725 34.9467 3.83877 35.1016 4.14574 35.2146C4.3149 35.2769 4.49449 35.3245 4.6929 35.3559C4.10063 35.2626 3.73078 35.035 3.35393 34.8031L3.34884 34.8L3.34871 34.7999ZM8.28395 34.3096L8.26721 34.3141L8.25953 34.3167C8.10104 34.3609 7.95802 34.4159 7.82651 34.4765L8.2375 34.2759L8.24084 34.2862L8.57003 34.2478C8.47059 34.2643 8.37558 34.285 8.28395 34.3096ZM7.24737 34.8C7.26622 34.7884 7.28497 34.7769 7.30363 34.7655C7.28963 34.7741 7.27572 34.7827 7.26191 34.7912L7.24768 34.7999L7.24758 34.8L7.24249 34.8031C6.87135 35.0315 6.50703 35.2557 5.93054 35.3515C6.11836 35.3201 6.28936 35.274 6.45085 35.2146C6.75754 35.1017 7.00889 34.9469 7.22953 34.811L7.24721 34.8001C7.24726 34.8001 7.24732 34.8 7.24737 34.8ZM11.146 34.8001L11.1459 34.8L11.1285 34.7893C10.9077 34.6533 10.6562 34.4984 10.3492 34.3854C10.18 34.3231 10.0004 34.2755 9.80202 34.2442C10.3943 34.3374 10.7641 34.565 11.141 34.7969L11.1461 34.8L11.1462 34.8001L11.1639 34.811C11.3846 34.9469 11.6359 35.1017 11.9426 35.2146C12.1168 35.2787 12.3021 35.3273 12.5076 35.3586C11.9044 35.2671 11.5308 35.037 11.15 34.8025L11.146 34.8001ZM14.2479 35.2146C14.4506 35.14 14.6291 35.0472 14.7907 34.9535C14.4864 35.1306 14.1549 35.287 13.6828 35.3586C13.8883 35.3273 14.0736 35.2787 14.2479 35.2146ZM15.3446 34.6204C15.6308 34.4576 15.9455 34.3153 16.3803 34.2456C16.1854 34.277 16.0086 34.3241 15.842 34.3854C15.6581 34.453 15.4941 34.5357 15.3446 34.6204ZM22.0453 35.2147C22.2472 35.1404 22.4252 35.0479 22.5863 34.9547C22.2826 35.1312 21.9514 35.2872 21.4801 35.3586C21.6857 35.3273 21.871 35.2788 22.0453 35.2147ZM23.0986 34.6453C23.4024 34.4688 23.7335 34.3128 24.2048 34.2414C23.9993 34.2727 23.814 34.3213 23.6397 34.3853C23.4377 34.4596 23.2597 34.5521 23.0986 34.6453ZM25.7612 34.2786L26.149 34.4687C26.0843 34.4392 26.017 34.4112 25.9467 34.3854C25.788 34.327 25.6201 34.2815 25.4361 34.2502L25.7581 34.2885L25.7612 34.2786ZM26.7271 34.7894C26.7009 34.7733 26.6743 34.757 26.6473 34.7404C26.6796 34.76 26.712 34.7798 26.7447 34.7999L26.762 34.8106C26.9832 34.9467 27.235 35.1017 27.5423 35.2146C27.7091 35.276 27.886 35.323 28.081 35.3544C27.4931 35.2603 27.1245 35.0337 26.7491 34.803L26.7445 34.8002L26.7443 34.8001L26.7271 34.7894ZM18.9433 34.8L18.9431 34.7999L18.9254 34.789C18.7048 34.6531 18.4535 34.4983 18.1469 34.3854C17.9752 34.3222 17.7929 34.2741 17.591 34.2428C18.1884 34.3351 18.5601 34.564 18.9387 34.7971L18.9434 34.8L18.9613 34.811C19.1819 34.9469 19.4333 35.1017 19.7399 35.2146C19.909 35.2769 20.0886 35.3245 20.287 35.3559C19.6951 35.2626 19.3255 35.0352 18.9487 34.8034L18.9433 34.8ZM30.6482 34.8001L30.648 34.8002L30.6435 34.803C30.268 35.0337 29.8995 35.2603 29.3115 35.3544C29.5066 35.323 29.6835 35.276 29.8502 35.2146C30.1575 35.1017 30.4093 34.9467 30.6306 34.8106L30.6479 34.7999L30.6481 34.7998L30.6526 34.797C31.0281 34.5663 31.3966 34.3397 31.9846 34.2456C31.7895 34.277 31.6126 34.324 31.4459 34.3854C31.1386 34.4983 30.8868 34.6533 30.6655 34.7894L30.6482 34.8001Z" stroke="#111111" stroke-width="1.2"/>
</svg>
