<svg width="46" height="32" viewBox="0 0 46 32" fill="none" xmlns="http://www.w3.org/2000/svg">
<rect width="46" height="32" rx="4" fill="white"/>
<path fill-rule="evenodd" clip-rule="evenodd" d="M23.3287 22.8752C21.7627 24.2463 19.7312 25.074 17.5114 25.074C12.5583 25.074 8.54297 20.9532 8.54297 15.87C8.54297 10.7868 12.5583 6.66602 17.5114 6.66602C19.7313 6.66602 21.7629 7.49381 23.329 8.86502C24.8951 7.49395 26.9266 6.66626 29.1464 6.66626C34.0995 6.66626 38.1148 10.787 38.1148 15.8702C38.1148 20.9535 34.0995 25.0742 29.1464 25.0742C26.9264 25.0742 24.8949 24.2464 23.3287 22.8752Z" fill="#ED0006"/>
<path fill-rule="evenodd" clip-rule="evenodd" d="M23.3281 22.8763C25.2571 21.1881 26.4803 18.6756 26.4803 15.87C26.4803 13.0643 25.2571 10.5519 23.3281 8.86372C24.894 7.49328 26.925 6.66602 29.1443 6.66602C34.0974 6.66602 38.1127 10.7868 38.1127 15.87C38.1127 20.9532 34.0974 25.074 29.1443 25.074C26.925 25.074 24.894 24.2467 23.3281 22.8763Z" fill="#F9A000"/>
<path fill-rule="evenodd" clip-rule="evenodd" d="M23.3306 22.8755C25.2588 21.1874 26.4815 18.6754 26.4815 15.8704C26.4815 13.0654 25.2588 10.5534 23.3306 8.86523C21.4024 10.5534 20.1797 13.0654 20.1797 15.8704C20.1797 18.6754 21.4024 21.1874 23.3306 22.8755Z" fill="#FF5E00"/>
</svg>
