<svg width="16" height="16" viewBox="0 0 16 16" fill="none" xmlns="http://www.w3.org/2000/svg">
<path d="M15.625 0.25C15.875 0.25 16 0.375 16 0.625V6.625C16 6.875 15.875 7 15.625 7H9.625C9.375 7 9.25 6.875 9.25 6.625V5.75C9.25 5.64583 9.28125 5.5625 9.34375 5.5C9.42708 5.41667 9.52083 5.375 9.625 5.375L13.5938 5.46875C13.0938 4.38542 12.3438 3.52083 11.3438 2.875C10.3438 2.20833 9.22917 1.875 8 1.875C6.3125 1.875 4.86458 2.47917 3.65625 3.6875C2.46875 4.875 1.875 6.3125 1.875 8C1.875 9.6875 2.46875 11.1354 3.65625 12.3438C4.86458 13.5312 6.3125 14.125 8 14.125C9.5625 14.125 10.9167 13.6042 12.0625 12.5625C12.25 12.4167 12.4271 12.4271 12.5938 12.5938L13.2188 13.2188C13.4062 13.4062 13.3958 13.5833 13.1875 13.75C11.7083 15.0833 9.97917 15.75 8 15.75C5.85417 15.75 4.02083 15 2.5 13.5C1 11.9792 0.25 10.1458 0.25 8C0.25 5.875 1 4.05208 2.5 2.53125C4.02083 1.01042 5.84375 0.25 7.96875 0.25C9.30208 0.25 10.5417 0.5625 11.6875 1.1875C12.8333 1.8125 13.7604 2.65625 14.4688 3.71875L14.375 0.625C14.375 0.520833 14.4062 0.4375 14.4688 0.375C14.5521 0.291667 14.6458 0.25 14.75 0.25H15.625Z" fill="#111111"/>
</svg>
