<svg width="20" height="28" viewBox="0 0 20 28" fill="none" xmlns="http://www.w3.org/2000/svg">
<path d="M9.4799 5.98438C9.71428 5.77604 9.93563 5.77604 10.144 5.98438L18.308 14.1875C18.5424 14.3958 18.5424 14.6042 18.308 14.8125L10.144 23.0156C9.93563 23.224 9.71428 23.224 9.4799 23.0156L8.69865 22.2344C8.62053 22.1562 8.58147 22.0521 8.58147 21.9219C8.58147 21.7917 8.62053 21.6745 8.69865 21.5703L14.7533 15.5156H1.43303C1.12053 15.5156 0.964279 15.3594 0.964279 15.0469V13.9531C0.964279 13.6406 1.12053 13.4844 1.43303 13.4844H14.7533L8.69865 7.42969C8.49032 7.19531 8.49032 6.97396 8.69865 6.76562L9.4799 5.98438Z" fill="#555555"/>
</svg>
