<svg width="28" height="28" viewBox="0 0 28 28" fill="none" xmlns="http://www.w3.org/2000/svg">
<path d="M21.1875 11.5625C21.3958 11.5625 21.5 11.6667 21.5 11.875V13.125C21.5 13.3333 21.3958 13.4375 21.1875 13.4375H14.9375V19.6875C14.9375 19.8958 14.8333 20 14.625 20H13.375C13.1667 20 13.0625 19.8958 13.0625 19.6875V13.4375H6.8125C6.60417 13.4375 6.5 13.3333 6.5 13.125V11.875C6.5 11.6667 6.60417 11.5625 6.8125 11.5625H13.0625V5.3125C13.0625 5.10417 13.1667 5 13.375 5H14.625C14.8333 5 14.9375 5.10417 14.9375 5.3125V11.5625H21.1875Z" fill="#111111"/>
</svg>
